<svg xmlns="http://www.w3.org/2000/svg" width="125" height="26" viewBox="0 0 125 26">
    <path d="M3.56,14.23,2.19,15.66v4.5H0V2H2.19V13l1.17-1.41,4-4.2H10L5,12.71l5.56,7.45H8Z" fill="#4e4b4b"/>
    <path d="M12.27,4a1.31,1.31,0,0,1,.32-.89,1.22,1.22,0,0,1,1-.37,1.23,1.23,0,0,1,1,.37,1.27,1.27,0,0,1,.33.89,1.26,1.26,0,0,1-.33.89,1.26,1.26,0,0,1-1,.36,1.25,1.25,0,0,1-1-.36A1.3,1.3,0,0,1,12.27,4Zm2.36,16.19H12.45V7.37h2.18Z" fill="#4e4b4b"/>
    <path d="M21.1,4.27v3.1h2.39V9.06H21.1V17a1.77,1.77,0,0,0,.32,1.15,1.32,1.32,0,0,0,1.09.39,5.12,5.12,0,0,0,1-.15v1.77a6.72,6.72,0,0,1-1.68.23,2.71,2.71,0,0,1-2.21-.88A3.81,3.81,0,0,1,18.91,17V9.06H16.58V7.37h2.33V4.27Z" fill="#4e4b4b"/>
    <path d="M31.17,18.61a3.15,3.15,0,0,0,2-.71,2.47,2.47,0,0,0,1-1.77h2.07a4,4,0,0,1-.75,2.09,5,5,0,0,1-1.87,1.58A5.68,5.68,0,0,1,27,18.65a6.93,6.93,0,0,1-1.55-4.77v-.37a7.67,7.67,0,0,1,.69-3.32,5.24,5.24,0,0,1,2-2.26,5.61,5.61,0,0,1,3-.8,5.12,5.12,0,0,1,3.57,1.29,4.58,4.58,0,0,1,1.52,3.34H34.18a3,3,0,0,0-.94-2,2.9,2.9,0,0,0-2.08-.79,3.06,3.06,0,0,0-2.58,1.2,5.56,5.56,0,0,0-.92,3.47V14a5.48,5.48,0,0,0,.91,3.4A3.07,3.07,0,0,0,31.17,18.61Z" fill="#4e4b4b"/>
    <path d="M40.9,8.91a4.64,4.64,0,0,1,3.78-1.78c2.7,0,4.07,1.52,4.09,4.57v8.46H46.58V11.69a2.86,2.86,0,0,0-.63-2A2.53,2.53,0,0,0,44,9a3.15,3.15,0,0,0-1.87.56A4,4,0,0,0,40.9,11v9.12H38.71V2H40.9Z" fill="#4e4b4b"/>
    <path d="M57.35,20.39a5.59,5.59,0,0,1-4.23-1.71,6.3,6.3,0,0,1-1.63-4.56v-.41a7.57,7.57,0,0,1,.73-3.39,5.6,5.6,0,0,1,2-2.34,5.05,5.05,0,0,1,2.83-.85A4.81,4.81,0,0,1,61,8.77a7.15,7.15,0,0,1,1.38,4.71v.91H53.68a4.54,4.54,0,0,0,1.1,3.05,3.47,3.47,0,0,0,2.69,1.17,3.75,3.75,0,0,0,2-.48,4.78,4.78,0,0,0,1.41-1.25l1.33,1A5.35,5.35,0,0,1,57.35,20.39ZM57.08,8.93a2.92,2.92,0,0,0-2.22,1,4.65,4.65,0,0,0-1.11,2.7h6.4v-.16a4.18,4.18,0,0,0-.89-2.59A2.77,2.77,0,0,0,57.08,8.93Z" fill="#4e4b4b"/>
    <path d="M66.94,7.37,67,9a4.65,4.65,0,0,1,3.83-1.84q4.05,0,4.09,4.57v8.46H72.74V11.69a3,3,0,0,0-.63-2A2.53,2.53,0,0,0,70.18,9a3.13,3.13,0,0,0-1.87.56A3.86,3.86,0,0,0,67.06,11v9.12H64.87V7.37Z" fill="#4e4b4b"/>
    <path d="M77.85,13.64A7.68,7.68,0,0,1,79.18,8.9a4.28,4.28,0,0,1,3.61-1.77,4.45,4.45,0,0,1,3.95,2V2h1.4V20.16H86.82l-.06-1.71a4.54,4.54,0,0,1-4,1.94,4.26,4.26,0,0,1-3.57-1.78,7.73,7.73,0,0,1-1.35-4.8Zm1.43.25a6.7,6.7,0,0,0,1,3.86A3.18,3.18,0,0,0,83,19.16a3.82,3.82,0,0,0,3.71-2.3v-6a3.78,3.78,0,0,0-3.69-2.49,3.22,3.22,0,0,0-2.78,1.4A7.13,7.13,0,0,0,79.28,13.89Z" fill="#4e4b4b"/>
    <path d="M99.94,20.16a6.9,6.9,0,0,1-.27-1.79,4.92,4.92,0,0,1-1.9,1.5,5.81,5.81,0,0,1-2.44.52,4.25,4.25,0,0,1-3-1,3.34,3.34,0,0,1-1.14-2.6,3.4,3.4,0,0,1,1.55-3,7.43,7.43,0,0,1,4.33-1.09h2.57V11.27a2.77,2.77,0,0,0-.85-2.16,3.49,3.49,0,0,0-2.46-.79,3.89,3.89,0,0,0-2.45.76,2.23,2.23,0,0,0-1,1.82H91.51a3.29,3.29,0,0,1,1.42-2.64,5.45,5.45,0,0,1,3.49-1.12A5,5,0,0,1,99.79,8.2a3.8,3.8,0,0,1,1.27,3v6.06a7.47,7.47,0,0,0,.39,2.77v.15Zm-4.44-1A4.71,4.71,0,0,0,98,18.45a4,4,0,0,0,1.63-1.83V13.81H97.13a6.28,6.28,0,0,0-3.31.77,2.33,2.33,0,0,0-1.2,2.07,2.29,2.29,0,0,0,.8,1.78A3,3,0,0,0,95.5,19.14Z" fill="#4e4b4b"/>
    <path d="M104.75,3.67A1,1,0,0,1,105,3a.92.92,0,0,1,.71-.28.94.94,0,0,1,.72.28,1,1,0,0,1,.26.67.94.94,0,0,1-.26.67,1,1,0,0,1-.72.27,1,1,0,0,1-.71-.27A.94.94,0,0,1,104.75,3.67Zm1.67,16.49H105V7.37h1.42Z" fill="#4e4b4b"/>
    <path d="M111.84,20.16h-1.41V2h1.41Z" fill="#4e4b4b"/>
    <path d="M119.74,18.12l3.74-10.75H125l-5.46,15-.28.66A3.44,3.44,0,0,1,116,25.32a3.93,3.93,0,0,1-1.08-.16V24l.73.07a2.58,2.58,0,0,0,1.68-.52,3.89,3.89,0,0,0,1.1-1.76l.62-1.73L114.22,7.37h1.55Z" fill="#4e4b4b"/>
</svg>
